<?xml version="1.0" standalone="no"?>
<!DOCTYPE svg PUBLIC "-//W3C//DTD SVG 20010904//EN"
 "http://www.w3.org/TR/2001/REC-SVG-20010904/DTD/svg10.dtd">
<svg version="1.0" xmlns="http://www.w3.org/2000/svg"
 width="512.000000pt" height="512.000000pt" viewBox="0 0 512.000000 512.000000"
 preserveAspectRatio="xMidYMid meet">
<metadata>
Created by potrace 1.14, written by Peter Selinger 2001-2017
</metadata>
<g transform="translate(0.000000,512.000000) scale(0.100000,-0.100000)"
fill="#000000" stroke="none">
<path d="M2436 5099 c-51 -17 -139 -68 -156 -89 -3 -3 -32 -26 -65 -51 -33
-24 -62 -47 -65 -50 -3 -3 -26 -21 -51 -40 -165 -121 -552 -425 -564 -442 -17
-25 -20 -70 -5 -96 8 -16 -1 -27 -58 -69 -37 -28 -80 -62 -96 -75 l-29 -23
-39 19 c-91 45 -172 -35 -135 -133 4 -10 -23 -38 -89 -88 -93 -71 -96 -73
-119 -58 -57 38 -85 29 -197 -57 -74 -57 -260 -199 -348 -267 -175 -134 -279
-215 -298 -233 -136 -126 -158 -362 -49 -523 71 -107 181 -159 333 -159 86 0
95 2 172 41 l82 40 0 -681 0 -681 -53 -17 c-135 -43 -274 -165 -340 -299 -20
-40 -39 -90 -43 -111 -5 -30 -22 -55 -73 -105 -73 -74 -121 -161 -140 -254
-15 -69 -8 -187 15 -254 39 -118 135 -229 246 -286 116 -60 -27 -57 2280 -57
1528 -1 2132 2 2170 10 182 39 342 195 383 374 19 81 12 208 -15 280 -29 76
-88 163 -140 208 -31 26 -45 48 -55 86 -48 183 -216 360 -392 412 l-43 12 0
684 c0 545 3 683 13 677 6 -4 28 -17 47 -29 57 -35 100 -47 181 -51 121 -5
216 32 301 117 69 69 108 157 113 253 9 168 -50 270 -241 413 -16 12 -65 50
-109 83 -44 34 -116 89 -160 122 -44 34 -95 73 -112 87 l-33 26 0 637 c0 437
-3 645 -11 661 -6 13 -24 31 -39 41 -26 15 -66 16 -357 16 -295 -1 -330 -3
-349 -19 -43 -35 -44 -46 -44 -391 l0 -331 -121 93 c-66 51 -166 128 -222 171
-56 42 -109 83 -117 90 -9 7 -42 33 -75 57 -33 25 -66 51 -75 57 -130 106
-278 212 -329 236 -84 40 -197 46 -285 16z m889 -4326 c-3 -16 -14 -32 -23
-37 -23 -13 -122 -116 -122 -127 0 -5 -253 -9 -618 -9 l-618 0 -17 29 c-15 26
-31 42 -110 108 -15 13 -27 32 -27 43 0 20 6 20 771 20 l771 0 -7 -27z"/>
</g>
</svg>
